Coordinates
version=1
nRows=8
nColumns=33
inDegrees=yes

Units are S.I. units (second, meters, Newtons, ...)
Angles are in degrees.

endheader
time	ground_thorax_rot_x	ground_thorax_rot_y	ground_thorax_rot_z	ground_thorax_tx	ground_thorax_ty	ground_thorax_tz	clav_prot_r	clav_elev_r	scapula_abduction_r	scapula_elevation_r	scapula_upward_rot_r	scapula_winging_r	shoulder_elv_r	plane_of_elev_r	axial_rot_r	elbow_flexion_r	pro_sup_r	wrist_flex_r	wrist_dev_r	clav_prot_l	clav_elev_l	scapula_abduction_l	scapula_elevation_l	scapula_upward_rot_l	scapula_winging_l	shoulder_elv_l	plane_of_elev_l	axial_rot_l	elbow_flexion_l	pro_sup_l	wrist_flex_l	wrist_dev_l
      1.85000000	     -3.49127026	      6.20379117	     10.59743938	     -0.10515042	      1.03148409	      0.01399174	     16.11096831	    -17.20754283	     39.65119593	    -16.50262524	     21.39037851	     -8.12817500	     -1.19104554	    -55.38104131	    122.81191215	    -31.06111272	   -130.37595267	     -5.71202356	      5.81318411	     24.53908162	    -11.80060717	    -36.54357605	     -6.08711735	    -26.56087482	     11.60202866	     56.87342003	      2.67905650	      7.59395397	     12.83059440	     14.69708734	     21.13809778	     -3.52079789
      1.86000000	     -3.49246983	      6.20151101	     10.52063270	     -0.10442274	      1.03188175	      0.01424009	     16.12467491	    -17.18941157	     39.63649145	    -16.47101903	     21.33636980	     -8.14225021	     -1.20381258	    -55.44083123	    122.80800768	    -31.03801104	   -130.38317018	     -5.70379323	      5.81083761	     24.53996027	    -11.77689868	    -36.54704750	     -6.11161952	    -26.56916824	     11.60761744	     56.87578629	      2.64724864	      7.59446287	     12.81959432	     14.69086158	     21.13599407	     -3.52306883
      1.87000000	     -3.38068275	      6.13823863	     10.52010774	     -0.10475872	      1.03133673	      0.01439366	     17.05162660	    -16.98994576	     40.79008889	    -16.13383698	     20.92160066	     -8.94021859	     -1.01066567	    -55.92135215	    122.59676112	    -31.00686619	   -134.38188780	     -2.54354382	      4.80716485	     24.78915225	    -11.33256274	    -37.03324723	     -6.08426224	    -25.72887315	     12.06839926	     55.74147215	      2.19919237	      7.09788090	     12.67316695	     12.43907152	     20.40092086	     -4.38172850
      1.88000000	     -3.20189505	      6.17210494	     10.43715101	     -0.10406217	      1.03142618	      0.01466090	     16.93279335	    -16.82205370	     40.55224955	    -15.96352348	     20.81953383	     -8.96052876	     -1.02628820	    -56.13622665	    122.46535214	    -31.26741530	   -134.64132908	     -2.50520955	      4.66381580	     24.71284742	    -11.29689333	    -36.91027812	     -6.16706237	    -25.83312790	     11.99702028	     55.66519542	      2.19720499	      7.15624223	     13.02103167	     12.32589523	     20.35691472	     -4.40418179
      1.89000000	     -3.19238580	      6.14113549	     10.37630169	     -0.10398058	      1.03145949	      0.01498917	     16.90268710	    -16.74883066	     40.47969669	    -15.88450686	     20.76552497	     -8.98997658	     -0.99277366	    -56.27535542	    122.41521607	    -31.27891574	   -134.67882062	     -2.49792243	      4.65483870	     24.70641881	    -11.21158531	    -36.90685285	     -6.24232646	    -25.83808016	     12.01567410	     55.74245936	      2.09346446	      7.16619228	     13.01404533	     12.31490724	     20.34993088	     -4.40194761
      1.90000000	     -2.92252759	      6.37286604	     10.19436996	     -0.10284606	      1.03142961	      0.01542262	     16.43099700	    -16.46401152	     39.64850939	    -15.60627877	     20.58202371	     -8.80873344	     -1.64977820	    -56.80488384	    122.10951723	    -32.18926908	   -141.39810267	     -0.57819530	      4.95360714	     24.40651132	    -11.68166031	    -36.35336129	     -5.88762160	    -25.89839883	     11.55978909	     56.13767162	      1.31725094	      5.82827426	     14.01746419	     10.72568868	     20.49386157	     -4.37570319
      1.91000000	     -2.84366046	      6.23615108	     10.21087574	     -0.10255059	      1.03098731	      0.01554194	     16.35402542	    -16.34747515	     39.36367204	    -15.43440614	     20.31929100	     -8.79535615	     -1.67077759	    -56.97250049	    122.05247330	    -32.63003527	   -141.84041668	     -0.46749799	      4.74490314	     24.24370664	    -11.38134523	    -36.12024439	     -6.21213503	    -26.02943002	     11.48387960	     55.96185253	      1.21382942	      6.27032065	     14.74196095	     10.45936736	     20.47180097	     -4.51182921
      1.92000000	     -2.82647121	      6.05906681	     10.14261781	     -0.10230242	      1.03042807	      0.01585075	     16.25895580	    -16.15620728	     39.00939927	    -15.17669302	     19.98477310	     -8.81129836	     -1.81436649	    -56.96136421	    122.01666704	    -33.47433105	   -142.67510303	     -0.12668055	      4.77242961	     24.10926003	    -11.16799042	    -35.92376136	     -6.44720434	    -26.12932291	     11.41067505	     56.01743838	      0.91243927	      6.58184199	     15.45329741	     10.18174927	     20.47294133	     -4.67239102
